<svg xmlns="http://www.w3.org/2000/svg" width="64" height="64"><path fill="#2951FE" fill-rule="evenodd" d="M63 32c0-10.1-8.2-18.4-18.4-18.4-4.4 0-8.4 1.5-11.6 4.1 2.4 2.3 4.3 5.2 5.2 8.5h-1.5c-1-2.9-2.6-5.5-4.8-7.6-2.2 2.1-3.8 4.7-4.8 7.6h-1.5c1-3.3 2.8-6.2 5.2-8.5-3.2-2.6-7.1-4.1-11.5-4.1C9.2 13.6 1 21.9 1 32c0 10.1 8.2 18.4 18.4 18.4 4.4 0 8.4-1.6 11.5-4.1-2.4-2.3-4.2-5.2-5.2-8.5h1.5c1 2.9 2.6 5.5 4.8 7.6 2.2-2.1 3.9-4.7 4.8-7.6h1.5c-1 3.3-2.8 6.2-5.2 8.5 3.2 2.6 7.2 4.1 11.6 4.1C54.8 50.4 63 42.1 63 32" clip-rule="evenodd"/><path fill="#FFF" fill-rule="evenodd" d="m49.5 36.3 1.3-6.8h1.6l.2.7c.3-.3.8-.7 1.8-.7l-.5 1.8c-.5 0-1.3-.1-1.9 1.9l-.6 3.1h-1.9M25 27.8h1.8l-.4 1.8h1l-.3 1.4h-.9l-.5 2.7c-.1.5 0 1 1 .8l-.2 1.5c-.4.3-.9.3-1.4.3-.4 0-1.8-.3-1.5-2.1l1.4-6.4M33 33.3c.2-1.1.7-3.8-2.5-3.8-3 0-3.4 3-3.4 3.4-.1.4-.1 3.4 3.1 3.4.8 0 1.9-.1 2.4-.3l.3-1.4c-.3.1-1.3.2-2.1.2-.7 0-1.9 0-1.7-1.5H33M23.2 31.1l.4-1.4c-.9-.3-1.6-.3-1.8-.3-.3 0-2.5 0-2.8 1.6-.3 1.3.2 1.8.6 2 .7.3 1.1.6 1.5.8.5.2.4 1-.2 1-.3 0-1.5.1-2.4-.2l-.3 1.4c.9.2 1.5.2 2.2.2.5 0 2.7.1 3-1.9.2-1-.3-1.4-.6-1.7-.4-.2-.9-.6-1.3-.7-.4-.2-.7-.8 0-1 .3.1 1.2.1 1.7.2M11.2 36.3l1.6-8.2H9.7l-2.2 5-.4-5H4.2l-1.6 8.2h1.8l1.2-5.9.5 5.9h1.7l2.6-5.8-1.1 5.8h1.9M13.3 29.7l-.3 1.5c.5 0 1.7-.2 2.3-.2.6 0 1.4-.1 1.1.9-.5 0-3.8-.5-4.3 2.4-.2 1.4 1 2.1 1.9 2.1.9 0 1.2-.2 1.5-.4l.2.4h1.7l.7-3.7c.2-.9.5-3.1-2.6-3.1-.4-.1-1-.1-2.2.1M43.2 30c-.5-.3-.8-.3-1.4-.3-.6 0-2 .6-2.2 2.2-.3 2 1 2.9 2.9 2.3l.5 1.7c-.6.3-1.2.4-2.2.4-1.9 0-4-1.7-3.1-5.2.7-2.5 2.9-3.5 4.2-3.4 1.5.1 2.1.6 2.5 1.1L43.2 30M58.9 30.3c-.4-.3-.6-.8-1.4-.8-1 0-2.6-.2-3.5 2.9-.6 2.1.6 3.9 1.9 3.9.6 0 1.2-.3 1.6-.5l.2.5h2l1.6-8.6h-1.9l-.5 2.6" clip-rule="evenodd"/><path fill="#FFF" fill-rule="evenodd" d="m44.5 29.7-.3 1.5c.5 0 1.7-.2 2.3-.2.6 0 1.3-.1 1.1.9-.5 0-3.8-.5-4.3 2.4-.2 1.4 1 2.1 1.9 2.1.9 0 1.2-.2 1.5-.4l.2.4h1.7l.7-3.7c.2-.9.5-3.1-2.6-3.1-.3-.1-1-.1-2.2.1" clip-rule="evenodd"/><path fill="#2951FE" fill-rule="evenodd" d="M29.1 32h2.3c.1-.7-.1-1.2-.8-1.2-.8 0-1.3.4-1.5 1.2M16.1 33.3c-.3 0-1-.2-1.6.2-.6.4-.8 1.1-.1 1.3.6.2 1.4-.2 1.6-.8l.1-.7M58.3 33.1c.2-.6.1-1.4-.1-1.7-.6-.8-1.9-.2-2.3 1.3-.3 1 .3 1.7.9 1.7.7 0 1.1-.5 1.5-1.3M47.4 33.3c-.3 0-1-.2-1.6.2-.6.4-.8 1.1-.1 1.3.6.2 1.5-.2 1.6-.8l.1-.7" clip-rule="evenodd"/><path fill="#FFF" fill-rule="evenodd" d="m33 36.3 1.3-6.7h1.6l.2.7c.3-.3.8-.7 1.8-.7l-.5 1.8c-.4 0-1.3-.1-1.9 1.9l-.6 3.1H33" clip-rule="evenodd"/><path fill="#2951FE" fill-rule="evenodd" d="M19.4 13.6c-8.1 0-15 5.3-17.4 12.6h23.8c1-3.3 2.8-6.2 5.2-8.5-3.3-2.5-7.3-4.1-11.6-4.1zM32 18.7c-2.2 2.1-3.8 4.6-4.8 7.6h9.6c-1-2.9-2.6-5.5-4.8-7.6zM44.6 13.6c-4.4 0-8.4 1.5-11.6 4.1 2.4 2.3 4.2 5.2 5.2 8.5H62c-2.3-7.3-9.2-12.6-17.4-12.6z" clip-rule="evenodd"/></svg>