<svg xmlns:xlink="http://www.w3.org/1999/xlink" stroke="currentColor" fill="currentColor" stroke- viewBox="0 0 1024 1024"   xmlns="http://www.w3.org/2000/svg" width="1"  height="1" ><path d="M904 160H120c-4.4 0-8 3.6-8 8v64c0 4.4 3.6 8 8 8h784c4.4 0 8-3.6 8-8v-64c0-4.4-3.6-8-8-8zm0 624H120c-4.4 0-8 3.6-8 8v64c0 4.4 3.6 8 8 8h784c4.4 0 8-3.6 8-8v-64c0-4.4-3.6-8-8-8zm0-312H120c-4.4 0-8 3.6-8 8v64c0 4.4 3.6 8 8 8h784c4.4 0 8-3.6 8-8v-64c0-4.4-3.6-8-8-8z" stroke="#1E4DB7" fill="#1E4DB7" stroke-width="0px"></path></svg>